<?xml version="1.0" standalone="no"?>
<!DOCTYPE svg PUBLIC "-//W3C//DTD SVG 20010904//EN"
 "http://www.w3.org/TR/2001/REC-SVG-20010904/DTD/svg10.dtd">
<svg version="1.0" xmlns="http://www.w3.org/2000/svg"
 width="400.000000pt" height="300.000000pt" viewBox="0 0 400.000000 300.000000"
 preserveAspectRatio="xMidYMid meet">
<metadata>
Created by potrace 1.15, written by Peter Selinger 2001-2017
</metadata>
<g transform="translate(0.000000,300.000000) scale(0.100000,-0.100000)"
fill="#000000" stroke="none">
<path d="M0 1495 l0 -1495 2000 0 2000 0 0 1495 0 1495 -2000 0 -2000 0 0
-1495z m2348 363 l-3 -103 -122 -3 -123 -3 1 -37 c0 -20 4 -45 7 -55 6 -14 11
-11 26 18 l19 35 99 0 98 0 0 -205 c0 -113 -4 -205 -8 -205 -5 0 -35 17 -68
39 -58 38 -125 102 -157 150 l-15 23 -25 -38 c-13 -22 -35 -58 -48 -81 -13
-24 -27 -43 -30 -43 -3 0 -20 26 -37 58 -58 108 -52 106 -117 34 -32 -34 -77
-76 -101 -93 l-44 -30 0 -94 c0 -52 4 -96 8 -99 16 -10 73 35 88 69 8 20 14
67 14 110 l0 76 27 -3 c22 -2 36 -21 89 -113 35 -60 67 -111 72 -113 6 -2 40
49 77 113 56 96 71 115 91 115 13 0 24 -3 25 -7 0 -5 1 -44 2 -88 2 -44 8 -90
15 -103 12 -21 67 -62 84 -62 4 0 8 21 10 48 3 39 6 47 23 47 18 0 20 -7 20
-75 l0 -75 -39 3 c-84 7 -151 70 -162 152 l-7 50 -66 -115 c-36 -63 -68 -115
-71 -115 -3 0 -34 51 -70 114 l-65 114 -10 -51 c-6 -29 -17 -62 -25 -73 -18
-29 -88 -74 -117 -75 -13 -1 -31 -2 -40 -3 -16 -1 -18 13 -21 140 l-3 142 65
46 c62 44 120 106 145 153 9 18 7 29 -16 67 -27 45 -29 46 -80 46 -29 0 -54
-3 -54 -7 -1 -5 -2 -48 -4 -98 -2 -89 -2 -90 -28 -93 l-27 -3 0 125 0 126 100
0 100 0 17 -36 c15 -30 18 -32 24 -17 4 10 8 35 8 55 l1 37 -122 3 -123 3 -3
103 -3 102 351 0 351 0 -3 -102z"/>
<path d="M1708 1903 c-1 -5 -2 -26 -2 -48 l-1 -40 120 -5 120 -5 3 -74 c2 -41
-1 -95 -7 -120 -10 -48 -9 -53 37 -125 l24 -39 34 61 c32 57 34 63 24 110 -6
27 -10 80 -8 118 l3 69 123 3 123 3 -3 47 -3 47 -292 3 c-161 1 -294 -1 -295
-5z"/>
<path d="M2157 1612 l-26 -48 20 -34 c24 -38 125 -140 140 -140 6 0 9 50 7
133 l-3 132 -56 3 -55 3 -27 -49z"/>
</g>
</svg>
